# This file uses centimeters as units for non-parametric coordinates.

mtllib CorkBoard.mtl
g default
v -60.350357 79.039879 0.585304
v 60.350357 79.039879 0.585304
v 60.350357 145.972305 0.585304
v -60.350357 145.972305 0.585304
v -61.816460 77.935043 2.154066
v -61.816460 147.077148 2.154066
v 61.816460 147.077148 2.154066
v 61.816460 77.935043 2.154066
v -60.350357 79.039879 1.369763
v -61.134640 78.255585 2.154066
v 60.350357 79.039879 1.369763
v 61.134640 78.255585 2.154066
v 60.350357 145.972305 1.369763
v 61.134640 146.756607 2.154066
v -60.350357 145.972305 1.369763
v -61.134640 146.756607 2.154066
v -64.015656 76.277786 1.983056
v -64.015656 148.734406 1.983056
v -61.816460 77.935043 1.622296
v -61.816460 147.077148 1.622296
v 64.015656 148.734406 1.983056
v 61.816460 147.077148 1.622296
v 64.015656 76.277786 1.983056
v 61.816460 77.935043 1.622296
v -64.281509 76.011940 3.014927
v -64.015656 76.277786 2.749069
v -64.281509 149.000259 3.014927
v -64.015656 148.734406 2.749069
v 64.281509 149.000259 3.014927
v 64.015656 148.734406 2.749069
v 64.281509 76.011940 3.014927
v 64.015656 76.277786 2.749069
v -67.893608 73.778038 1.663017
v -67.376762 74.294876 2.179865
v 67.893608 73.778038 1.663017
v 67.376762 74.294876 2.179865
v -67.893608 151.234161 1.663017
v -67.376762 150.717331 2.179865
v 67.893608 151.234161 1.663017
v 67.376762 150.717331 2.179865
v -67.893608 151.234161 -1.637218
v 67.893608 151.234161 -1.637218
v -67.893608 73.778038 -1.637218
v 67.893608 73.778038 -1.637218
vt 0.815934 0.572534
vt 0.156846 0.572551
vt 0.811688 0.939916
vt 0.811678 0.572534
vt 0.152599 0.935676
vt 0.811687 0.935660
vt 0.156846 0.568295
vt 0.156855 0.935676
vt 0.090789 0.069941
vt 0.094814 0.472708
vt 0.090843 0.474570
vt 0.807469 0.472600
vt 0.811433 0.474461
vt 0.807409 0.071694
vt 0.811380 0.069833
vt 0.094754 0.071803
vt 0.090845 0.477657
vt 0.814520 0.474463
vt 0.811377 0.066746
vt 0.057811 0.049697
vt 0.845918 0.045699
vt 0.842068 0.049687
vt 0.845949 0.500405
vt 0.034822 0.045718
vt 0.845926 0.026544
vt 0.053977 0.045697
vt 0.865105 0.500385
vt 0.100652 0.466665
vt 0.156855 0.939932
vt 0.801675 0.466526
vt 0.815943 0.935660
vt 0.100548 0.077876
vt 0.152590 0.572551
vt 0.801571 0.077737
vt 0.811678 0.568278
vt 0.128057 0.555486
vt 0.842115 0.496406
vt 0.110788 0.966315
vt 0.115187 0.541242
vt 0.115187 0.545684
vt 0.115231 0.966315
vt 0.076197 0.060648
vt 0.076263 0.485467
vt 0.862442 0.545606
vt 0.858044 0.970679
vt 0.858043 0.966237
vt 0.858000 0.545606
vt 0.823729 0.485454
vt 0.823663 0.060635
vt 0.054008 0.500404
vt 0.054001 0.519558
vt 0.057858 0.496415
vt 0.814467 0.069834
vt 0.845136 0.555412
vt 0.087703 0.069940
vt 0.090787 0.066854
vt 0.811436 0.477548
vt 0.845173 0.956435
vt 0.087756 0.474568
vt 0.128094 0.956509
vt 0.821687 0.062684
vt 0.857999 0.541164
vt 0.821764 0.483398
vt 0.862485 0.966237
vt 0.078239 0.483419
vt 0.115232 0.970758
vt 0.078163 0.062704
vt 0.110745 0.545685
vt 0.053989 0.026542
vt 0.865073 0.045697
vt 0.034854 0.500406
vt 0.845937 0.519561
vn 0.000000 0.000000 1.000000
vn 0.000000 0.000000 1.000000
vn 0.000000 0.000000 1.000000
vn 0.000000 0.000000 1.000000
vn 0.161878 0.000000 0.986811
vn 0.161878 0.000000 0.986811
vn 0.161878 0.000000 0.986811
vn 0.161878 0.000000 0.986811
vn 0.000000 -0.212705 0.977117
vn 0.000000 -0.212705 0.977117
vn 0.000000 -0.212705 0.977117
vn 0.000000 -0.212705 0.977117
vn -0.161878 0.000000 0.986811
vn -0.161878 0.000000 0.986811
vn -0.161878 0.000000 0.986811
vn -0.161878 0.000000 0.986811
vn 0.000000 0.212704 0.977117
vn 0.000000 0.212704 0.977117
vn 0.000000 0.212704 0.977117
vn 0.000000 0.212704 0.977117
vn 0.000000 0.707113 0.707100
vn 0.000000 0.707113 0.707100
vn 0.000000 0.707113 0.707100
vn 0.000000 0.707113 0.707100
vn 0.707116 0.000000 0.707098
vn 0.707116 0.000000 0.707098
vn 0.707116 0.000000 0.707098
vn 0.707116 0.000000 0.707098
vn -0.707116 0.000000 0.707098
vn -0.707116 0.000000 0.707098
vn -0.707116 0.000000 0.707098
vn -0.707116 0.000000 0.707098
vn 0.000000 -0.707106 0.707108
vn 0.000000 -0.707106 0.707108
vn 0.000000 -0.707106 0.707108
vn 0.000000 -0.707106 0.707108
vn 0.000000 1.000000 0.000000
vn 0.000000 1.000000 0.000000
vn 0.000000 1.000000 0.000000
vn 0.000000 1.000000 0.000000
vn -1.000000 0.000000 0.000000
vn -1.000000 0.000000 0.000000
vn -1.000000 0.000000 0.000000
vn -1.000000 0.000000 0.000000
vn 0.000000 -1.000000 0.000000
vn 0.000000 -1.000000 0.000000
vn 0.000000 -1.000000 0.000000
vn 0.000000 -1.000000 0.000000
vn 1.000000 0.000000 0.000000
vn 1.000000 0.000000 0.000000
vn 1.000000 0.000000 0.000000
vn 1.000000 0.000000 0.000000
vn 0.000000 0.000000 1.000000
vn 0.000000 0.000000 1.000000
vn 0.000000 0.000000 1.000000
vn 0.000000 0.000000 1.000000
vn -0.000000 0.000000 1.000000
vn -0.000000 0.000000 1.000000
vn -0.000000 0.000000 1.000000
vn -0.000000 0.000000 1.000000
vn -1.000000 0.000000 0.000000
vn -1.000000 0.000000 0.000000
vn -1.000000 0.000000 0.000000
vn -1.000000 0.000000 0.000000
vn 0.000000 1.000000 0.000000
vn 0.000000 1.000000 0.000000
vn 0.000000 1.000000 0.000000
vn 0.000000 1.000000 0.000000
vn 1.000000 0.000000 0.000000
vn 1.000000 0.000000 0.000000
vn 1.000000 0.000000 0.000000
vn 1.000000 0.000000 0.000000
vn 0.000000 -1.000000 0.000000
vn 0.000000 -1.000000 0.000000
vn 0.000000 -1.000000 0.000000
vn 0.000000 -1.000000 0.000000
vn 0.707113 0.000000 0.707101
vn 0.707113 0.000000 0.707101
vn 0.707113 0.000000 0.707101
vn 0.707113 0.000000 0.707101
vn 0.000000 0.707122 0.707091
vn 0.000000 0.707122 0.707091
vn 0.000000 0.707122 0.707091
vn 0.000000 0.707122 0.707091
vn 0.000000 -0.707082 0.707132
vn 0.000000 -0.707082 0.707132
vn 0.000000 -0.707082 0.707132
vn 0.000000 -0.707082 0.707132
vn -0.707113 0.000000 0.707101
vn -0.707113 0.000000 0.707101
vn -0.707113 0.000000 0.707101
vn -0.707113 0.000000 0.707101
vn 1.000000 0.000000 0.000000
vn 1.000000 0.000000 0.000000
vn 1.000000 0.000000 0.000000
vn 1.000000 0.000000 0.000000
vn 0.000000 -1.000000 0.000000
vn 0.000000 -1.000000 0.000000
vn 0.000000 -1.000000 0.000000
vn 0.000000 -1.000000 0.000000
vn -1.000000 0.000000 0.000000
vn -1.000000 0.000000 0.000000
vn -1.000000 0.000000 0.000000
vn -1.000000 0.000000 0.000000
vn 0.000000 1.000000 0.000000
vn 0.000000 1.000000 0.000000
vn 0.000000 1.000000 0.000000
vn 0.000000 1.000000 0.000000
vn -0.707108 0.000000 0.707106
vn -0.707108 0.000000 0.707106
vn -0.707108 0.000000 0.707106
vn -0.707108 0.000000 0.707106
vn 0.000000 -0.707112 0.707101
vn 0.000000 -0.707112 0.707101
vn 0.000000 -0.707112 0.707101
vn 0.000000 -0.707112 0.707101
vn 0.707108 0.000000 0.707106
vn 0.707108 0.000000 0.707106
vn 0.707108 0.000000 0.707106
vn 0.707108 0.000000 0.707106
vn 0.000000 0.707117 0.707097
vn 0.000000 0.707117 0.707097
vn 0.000000 0.707117 0.707097
vn 0.000000 0.707117 0.707097
vn 0.000000 1.000000 0.000000
vn 0.000000 1.000000 0.000000
vn 0.000000 1.000000 0.000000
vn 0.000000 1.000000 0.000000
vn 0.000000 -1.000000 0.000000
vn 0.000000 -1.000000 0.000000
vn 0.000000 -1.000000 0.000000
vn 0.000000 -1.000000 0.000000
vn 1.000000 0.000000 0.000000
vn 1.000000 0.000000 0.000000
vn 1.000000 0.000000 0.000000
vn 1.000000 0.000000 0.000000
vn -1.000000 0.000000 0.000000
vn -1.000000 0.000000 0.000000
vn -1.000000 0.000000 0.000000
vn -1.000000 0.000000 0.000000
vn 0.000000 -0.437353 0.899290
vn 0.000000 -0.437353 0.899290
vn 0.000000 -0.437353 0.899290
vn 0.000000 -0.437353 0.899290
vn 0.260475 0.000000 0.965481
vn 0.260475 0.000000 0.965481
vn 0.260475 0.000000 0.965481
vn 0.260475 0.000000 0.965481
vn 0.000000 0.437354 0.899290
vn 0.000000 0.437354 0.899290
vn 0.000000 0.437354 0.899289
vn 0.000000 0.437354 0.899289
vn -0.260475 0.000000 0.965481
vn -0.260475 0.000000 0.965481
vn -0.260475 0.000000 0.965481
vn -0.260475 0.000000 0.965481
s off
g CorkBoard
usemtl initialShadingGroup
f 1/2/1 2/4/2 3/6/3 4/8/4
f 18/41/5 17/40/6 19/36/7 20/60/8
f 21/46/9 18/41/10 20/60/11 22/58/12
f 23/47/13 21/46/14 22/58/15 24/54/16
f 17/40/17 23/47/18 24/54/19 19/36/20
f 9/32/21 10/16/22 12/14/23 11/34/24
f 10/16/25 9/32/26 15/28/27 16/10/28
f 11/34/29 12/14/30 14/12/31 13/30/32
f 13/30/33 14/12/34 16/10/35 15/28/36
f 9/7/37 11/35/38 2/4/39 1/2/40
f 11/1/41 13/31/42 3/6/43 2/4/44
f 13/3/45 15/29/46 4/8/47 3/6/48
f 15/5/49 9/33/50 1/2/51 4/8/52
s 1
f 6/11/53 5/9/54 10/16/55 16/10/56
f 7/13/57 6/11/53 16/10/56 14/12/58
f 8/15/59 7/13/57 14/12/58 12/14/60
f 5/9/54 8/15/59 12/14/60 10/16/55
s off
f 5/9/61 6/11/62 20/59/63 19/55/64
f 6/11/65 7/13/66 22/57/67 20/17/68
f 7/13/69 8/15/70 24/53/71 22/18/72
f 8/15/73 5/9/74 19/56/75 24/19/76
f 25/42/77 26/67/78 28/65/79 27/43/80
f 26/67/81 25/42/82 31/49/83 32/61/84
f 27/43/85 28/65/86 30/63/87 29/48/88
f 29/48/89 30/63/90 32/61/91 31/49/92
f 28/38/93 26/68/94 17/40/95 18/41/96
f 30/45/97 28/66/98 18/41/99 21/46/100
f 32/44/101 30/64/102 21/46/103 23/47/104
f 26/39/105 32/62/106 23/47/107 17/40/108
f 33/26/109 34/20/110 38/52/111 37/50/112
f 34/20/113 33/26/114 35/21/115 36/22/116
f 36/22/117 35/21/118 39/23/119 40/37/120
f 37/50/121 38/52/122 40/37/123 39/23/124
f 37/50/125 39/23/126 42/72/127 41/51/128
f 43/69/129 44/25/130 35/21/131 33/26/132
f 35/21/133 44/70/134 42/27/135 39/23/136
f 43/24/137 33/26/138 37/50/139 41/71/140
f 34/20/141 36/22/142 31/49/143 25/42/144
f 36/22/145 40/37/146 29/48/147 31/49/148
f 40/37/149 38/52/150 27/43/151 29/48/152
f 38/52/153 34/20/154 25/42/155 27/43/156
