# This file uses centimeters as units for non-parametric coordinates.

mtllib Polaroid.mtl
g default
v -3.952026 -5.186662 0.032196
v 3.952026 -5.186662 0.032196
v -3.952026 5.186662 0.032196
v 3.952026 5.186662 0.032196
v -3.952026 5.186662 -0.032196
v 3.952026 5.186662 -0.032196
v -3.952026 -5.186662 -0.032196
v 3.952026 -5.186662 -0.032196
vt 0.003082 0.000716
vt 0.381441 0.000006
vt 0.004015 0.497276
vt 0.382373 0.496565
vt 0.004021 0.500358
vt 0.382379 0.499648
vt 0.004953 0.996918
vt 0.383311 0.996207
vt 0.004959 1.000000
vt 0.383317 0.999289
vt 0.384523 0.000000
vt 0.385455 0.496559
vt 0.000000 0.000722
vt 0.000933 0.497282
vn 0.000000 0.000000 1.000000
vn 0.000000 0.000000 1.000000
vn 0.000000 0.000000 1.000000
vn 0.000000 0.000000 1.000000
vn 0.000000 1.000000 0.000000
vn 0.000000 1.000000 0.000000
vn 0.000000 1.000000 0.000000
vn 0.000000 1.000000 0.000000
vn 0.000000 0.000000 -1.000000
vn 0.000000 0.000000 -1.000000
vn 0.000000 0.000000 -1.000000
vn 0.000000 0.000000 -1.000000
vn 0.000000 -1.000000 0.000000
vn 0.000000 -1.000000 0.000000
vn 0.000000 -1.000000 0.000000
vn 0.000000 -1.000000 0.000000
vn 1.000000 0.000000 0.000000
vn 1.000000 0.000000 0.000000
vn 1.000000 0.000000 0.000000
vn 1.000000 0.000000 0.000000
vn -1.000000 0.000000 0.000000
vn -1.000000 0.000000 0.000000
vn -1.000000 0.000000 0.000000
vn -1.000000 0.000000 0.000000
s off
g pCube1
usemtl initialShadingGroup
f 1/1/1 2/2/2 4/4/3 3/3/4
f 3/3/5 4/4/6 6/6/7 5/5/8
f 5/5/9 6/6/10 8/8/11 7/7/12
f 7/7/13 8/8/14 2/10/15 1/9/16
f 2/2/17 8/11/18 6/12/19 4/4/20
f 7/13/21 1/1/22 3/3/23 5/14/24
